<?xml version="1.0" standalone="no"?>
<!DOCTYPE svg PUBLIC "-//W3C//DTD SVG 20010904//EN"
 "http://www.w3.org/TR/2001/REC-SVG-20010904/DTD/svg10.dtd">
<svg version="1.0" xmlns="http://www.w3.org/2000/svg"
 width="205.000000pt" height="205.000000pt" viewBox="0 0 205.000000 205.000000"
 preserveAspectRatio="xMidYMid meet">
<metadata>
Created by potrace 1.14, written by Peter Selinger 2001-2017
</metadata>
<g transform="translate(0.000000,205.000000) scale(0.100000,-0.100000)"
fill="#000000" stroke="none">
<path d="M905 1953 c-27 -10 -131 -65 -230 -122 -422 -243 -435 -252 -488
-360 l-32 -66 -3 -353 c-3 -302 -1 -361 13 -410 15 -54 57 -124 98 -165 19
-19 20 -19 61 4 22 12 52 30 66 40 14 9 95 57 180 106 166 96 555 324 605 354
17 11 37 22 45 26 8 4 38 21 65 39 l51 32 -1 380 c0 241 -4 384 -10 390 -5 5
-30 20 -55 33 -25 13 -47 26 -50 30 -3 3 -29 15 -58 28 -75 31 -191 37 -257
14z"/>
<path d="M1496 1408 c1 -183 2 -336 3 -339 1 -6 64 -61 168 -146 21 -17 76
-63 122 -102 47 -39 86 -69 88 -67 2 2 4 140 4 307 0 249 -3 313 -16 356 -17
58 -72 145 -111 177 -35 28 -236 146 -249 146 -7 0 -10 -113 -9 -332z"/>
<path d="M1105 753 c-165 -96 -318 -186 -340 -198 -36 -20 -78 -45 -272 -159
-29 -16 -50 -33 -45 -37 6 -7 127 -78 232 -137 25 -14 59 -33 75 -43 186 -112
312 -121 465 -33 54 32 59 34 275 158 227 130 268 160 310 217 l35 49 -28 24
c-46 41 -337 281 -373 309 l-34 26 -300 -176z"/>
</g>
</svg>
