<svg width="500" height="557" viewBox="0 0 500 557" fill="none" xmlns="http://www.w3.org/2000/svg">
<g clip-path="url(#clip0_373_16046)">
<path d="M342.353 264.599L38.3683 446.417C14.2703 425.618 0 394.764 0 361.844V194.489C0 154.958 20.5977 118.457 54.1196 98.6221L195.88 14.876C229.402 -4.95865 270.598 -4.95865 304.12 14.876L342.353 37.4654V264.599Z" fill="#5956FF"/>
<path d="M363.084 307.008L487.747 412.93C478.458 431.387 464.053 447.09 445.744 457.834L303.983 541.58C270.461 561.414 229.266 561.414 195.744 541.58L82.6586 474.638L363.084 307.008Z" fill="#5956FF"/>
<path d="M499.998 194.478V361.833L388.528 267.205V64.7266L445.879 98.6107C479.401 118.445 499.998 154.947 499.998 194.478Z" fill="#9EB3E8"/>
</g>
<defs>
<clipPath id="clip0_373_16046">
<rect width="499.998" height="556.456" fill="white"/>
</clipPath>
</defs>
</svg>
