<svg width="76" height="20" viewBox="0 0 76 20" fill="none" xmlns="http://www.w3.org/2000/svg">
<g clip-path="url(#clip0_404_17473)">
<path d="M28.526 4.92578H24.3668C24.2291 4.92569 24.0959 4.97479 23.9912 5.06421C23.8865 5.15364 23.8172 5.27751 23.7957 5.41353L22.1135 16.0788C22.1058 16.1283 22.1089 16.1789 22.1226 16.2271C22.1363 16.2753 22.1602 16.3199 22.1928 16.358C22.2254 16.396 22.2659 16.4265 22.3114 16.4474C22.3569 16.4683 22.4064 16.4791 22.4565 16.479H24.4422C24.58 16.4791 24.7132 16.4299 24.8179 16.3403C24.9227 16.2508 24.9919 16.1268 25.0132 15.9907L25.4669 13.1141C25.4882 12.978 25.5574 12.8541 25.662 12.7646C25.7666 12.675 25.8997 12.6258 26.0374 12.6257H27.354C30.0938 12.6257 31.675 11.2999 32.088 8.67266C32.2741 7.52323 32.0959 6.62012 31.5577 5.98763C30.9665 5.29311 29.9181 4.92578 28.526 4.92578ZM29.0058 8.82105C28.7784 10.3135 27.6381 10.3135 26.5355 10.3135H25.9078L26.3482 7.52627C26.361 7.44473 26.4026 7.37047 26.4654 7.31684C26.5281 7.26322 26.608 7.23375 26.6905 7.23375H26.9782C27.7293 7.23375 28.4378 7.23375 28.8039 7.66189C29.0222 7.91732 29.0891 8.29681 29.0058 8.82105ZM40.9586 8.773H38.9669C38.8843 8.773 38.8045 8.80247 38.7417 8.85609C38.6789 8.90972 38.6374 8.98399 38.6245 9.06553L38.5363 9.6226L38.397 9.42069C37.9658 8.7949 37.0043 8.58569 36.0447 8.58569C33.8437 8.58569 31.9639 10.2527 31.5978 12.591C31.4074 13.7575 31.6781 14.8729 32.3397 15.6507C32.9467 16.3659 33.8151 16.6639 34.8484 16.6639C36.6218 16.6639 37.6052 15.5236 37.6052 15.5236L37.5164 16.077C37.5085 16.1265 37.5114 16.1771 37.5249 16.2253C37.5385 16.2736 37.5623 16.3183 37.5948 16.3565C37.6273 16.3946 37.6676 16.4253 37.7131 16.4463C37.7586 16.4674 37.8081 16.4783 37.8582 16.4784H39.6523C39.79 16.4785 39.9233 16.4293 40.028 16.3397C40.1327 16.2502 40.202 16.1262 40.2233 15.99L41.2998 9.17317C41.3077 9.1238 41.3048 9.0733 41.2913 9.02516C41.2778 8.97701 41.254 8.93237 41.2216 8.89432C41.1891 8.85627 41.1488 8.82572 41.1034 8.80477C41.058 8.78383 41.0086 8.77299 40.9586 8.773ZM38.1823 12.6494C37.9902 13.7873 37.087 14.5511 35.9352 14.5511C35.3568 14.5511 34.8946 14.3656 34.5978 14.0141C34.3035 13.665 34.1916 13.1682 34.2853 12.6148C34.4647 11.4866 35.383 10.6978 36.5172 10.6978C37.0828 10.6978 37.5426 10.8858 37.8454 11.2403C38.1489 11.5985 38.2693 12.0984 38.1823 12.6494ZM51.5661 8.773H49.5647C49.4703 8.77315 49.3773 8.79633 49.2939 8.84052C49.2105 8.88472 49.1392 8.94859 49.086 9.02661L46.3256 13.0928L45.1555 9.18534C45.1196 9.06616 45.0463 8.96171 44.9464 8.88745C44.8465 8.81319 44.7253 8.77306 44.6009 8.773H42.6341C42.5789 8.77286 42.5244 8.7859 42.4753 8.81104C42.4261 8.83619 42.3837 8.87271 42.3515 8.91757C42.3193 8.96242 42.2983 9.01432 42.2902 9.06893C42.2822 9.12355 42.2872 9.1793 42.3051 9.23156L44.5096 15.7012L42.437 18.627C42.4002 18.6789 42.3783 18.7399 42.3739 18.8034C42.3694 18.8668 42.3825 18.9303 42.4117 18.9868C42.4409 19.0434 42.4851 19.0908 42.5395 19.1238C42.5938 19.1569 42.6562 19.1744 42.7198 19.1744H44.7188C44.8122 19.1745 44.9042 19.152 44.9869 19.1088C45.0696 19.0656 45.1406 19.0029 45.1938 18.9262L51.8507 9.31731C51.8868 9.26532 51.908 9.20445 51.9119 9.14129C51.9159 9.07814 51.9025 9.0151 51.8732 8.95902C51.8438 8.90295 51.7997 8.85597 51.7456 8.82318C51.6915 8.79038 51.6294 8.77303 51.5661 8.773Z" fill="#253B80"/>
<path d="M58.1921 4.92639H54.0323C53.8947 4.92645 53.7616 4.9756 53.6571 5.06502C53.5525 5.15443 53.4833 5.27823 53.4618 5.41413L51.7796 16.0794C51.7718 16.1288 51.7748 16.1794 51.7884 16.2275C51.802 16.2756 51.8258 16.3203 51.8583 16.3583C51.8908 16.3963 51.9311 16.4269 51.9766 16.4478C52.022 16.4688 52.0714 16.4796 52.1214 16.4796H54.2561C54.3524 16.4795 54.4455 16.445 54.5186 16.3823C54.5917 16.3197 54.6401 16.233 54.655 16.1378L55.1324 13.1147C55.1537 12.9786 55.2229 12.8547 55.3275 12.7652C55.4321 12.6756 55.5652 12.6264 55.7029 12.6263H57.019C59.7593 12.6263 61.3399 11.3005 61.7535 8.67327C61.9402 7.52384 61.7608 6.62072 61.2226 5.98824C60.632 5.29372 59.5842 4.92639 58.1921 4.92639ZM58.6719 8.82166C58.4451 10.3141 57.3048 10.3141 56.2016 10.3141H55.5746L56.0155 7.52688C56.0281 7.44534 56.0695 7.37101 56.1322 7.31735C56.1949 7.2637 56.2748 7.23426 56.3573 7.23436H56.6449C57.3954 7.23436 58.1045 7.23436 58.4706 7.6625C58.689 7.91793 58.7552 8.29742 58.6719 8.82166ZM70.6241 8.77361H68.6336C68.551 8.77338 68.4711 8.80278 68.4084 8.85646C68.3457 8.91014 68.3043 8.98454 68.2918 9.06614L68.2036 9.62321L68.0637 9.4213C67.6326 8.79551 66.6717 8.5863 65.712 8.5863C63.5111 8.5863 61.6318 10.2533 61.2657 12.5916C61.076 13.7581 61.3454 14.8735 62.0071 15.6513C62.6152 16.3665 63.4825 16.6645 64.5157 16.6645C66.2891 16.6645 67.2725 15.5242 67.2725 15.5242L67.1837 16.0776C67.1758 16.1272 67.1787 16.1779 67.1923 16.2262C67.2059 16.2746 67.2299 16.3194 67.2625 16.3576C67.2951 16.3957 67.3357 16.4264 67.3813 16.4473C67.4269 16.4683 67.4765 16.4791 67.5267 16.479H69.3202C69.4579 16.4789 69.591 16.4297 69.6956 16.3401C69.8002 16.2506 69.8694 16.1267 69.8907 15.9907L70.9677 9.17378C70.9753 9.12426 70.9722 9.07366 70.9584 9.02548C70.9446 8.9773 70.9206 8.93267 70.888 8.89465C70.8553 8.85663 70.8148 8.82613 70.7693 8.80523C70.7237 8.78434 70.6742 8.77355 70.6241 8.77361ZM67.8479 12.65C67.6569 13.7879 66.7526 14.5517 65.6007 14.5517C65.0236 14.5517 64.5601 14.3663 64.2634 14.0147C63.969 13.6657 63.8583 13.1688 63.9508 12.6154C64.1314 11.4872 65.0485 10.6984 66.1827 10.6984C66.7483 10.6984 67.2081 10.8864 67.5109 11.2409C67.8156 11.5991 67.936 12.099 67.8479 12.65ZM72.9722 5.21891L71.2651 16.0794C71.2573 16.1288 71.2603 16.1794 71.2738 16.2275C71.2874 16.2756 71.3113 16.3203 71.3438 16.3583C71.3762 16.3963 71.4166 16.4269 71.462 16.4478C71.5074 16.4688 71.5569 16.4796 71.6069 16.4796H73.3231C73.6083 16.4796 73.8504 16.2728 73.8942 15.9913L75.5776 5.32656C75.5854 5.27712 75.5824 5.22658 75.5688 5.17841C75.5553 5.13024 75.5314 5.08558 75.4989 5.04749C75.4665 5.00941 75.4261 4.97882 75.3807 4.9578C75.3353 4.93679 75.2858 4.92587 75.2358 4.92578H73.314C73.2315 4.92607 73.1518 4.95573 73.0892 5.00945C73.0265 5.06316 72.9851 5.13742 72.9722 5.21891Z" fill="#179BD7"/>
<path d="M4.84004 18.5538L5.15811 16.5335L4.4496 16.5171H1.06641L3.41755 1.60928C3.42455 1.56373 3.44769 1.52221 3.48274 1.49229C3.5178 1.46237 3.56243 1.44605 3.60852 1.44629H9.31306C11.2069 1.44629 12.5138 1.84038 13.1962 2.61822C13.5161 2.98311 13.7198 3.36443 13.8183 3.78406C13.9217 4.22437 13.9235 4.75043 13.8226 5.39204L13.8153 5.43886V5.84998L14.1352 6.03121C14.3794 6.15494 14.5989 6.3223 14.7829 6.52504C15.0565 6.83703 15.2335 7.23355 15.3083 7.70365C15.3855 8.18714 15.36 8.76246 15.2335 9.4138C15.0875 10.1631 14.8516 10.8156 14.5329 11.3496C14.2517 11.8279 13.8737 12.2422 13.423 12.5659C12.9997 12.8663 12.4968 13.0944 11.9281 13.2403C11.3772 13.3839 10.7489 13.4562 10.0599 13.4562H9.61592C9.29846 13.4562 8.99013 13.5706 8.74808 13.7755C8.50637 13.9827 8.34603 14.2689 8.29561 14.5832L8.26216 14.765L7.70022 18.3258L7.67468 18.4565C7.66799 18.4979 7.65643 18.5186 7.6394 18.5326C7.62291 18.546 7.60233 18.5536 7.58102 18.5538H4.84004Z" fill="#253B80"/>
<path d="M14.4389 5.48535C14.4219 5.59421 14.4024 5.70551 14.3805 5.81984C13.6282 9.68227 11.0545 11.0166 7.7674 11.0166H6.09374C5.69175 11.0166 5.353 11.3085 5.29036 11.705L4.43346 17.1395L4.19081 18.68C4.18114 18.7411 4.18483 18.8036 4.20162 18.8631C4.21842 18.9227 4.24791 18.9779 4.28808 19.0249C4.32825 19.0719 4.37814 19.1097 4.43432 19.1357C4.49049 19.1616 4.55161 19.175 4.61348 19.175H7.58191C7.93342 19.175 8.23203 18.9196 8.28737 18.573L8.31656 18.4221L8.87546 14.8753L8.91135 14.6807C8.96608 14.3329 9.26529 14.0774 9.61681 14.0774H10.0608C12.9368 14.0774 15.1882 12.9098 15.8462 9.53083C16.1211 8.11929 15.9788 6.94068 15.2514 6.11176C15.0209 5.85533 14.7456 5.64307 14.4389 5.48535Z" fill="#179BD7"/>
<path d="M13.6526 5.17258C13.4124 5.1031 13.168 5.04886 12.921 5.0102C12.4328 4.93518 11.9395 4.89919 11.4456 4.90256H6.9744C6.80424 4.90243 6.63965 4.96318 6.51038 5.07382C6.3811 5.18447 6.29568 5.33771 6.26955 5.50586L5.31838 11.5303L5.29102 11.706C5.32065 11.5143 5.41794 11.3394 5.5653 11.2132C5.71265 11.0869 5.90034 11.0175 6.0944 11.0176H7.76805C11.0552 11.0176 13.6289 9.6827 14.3812 5.82088C14.4037 5.70655 14.4225 5.59526 14.4396 5.48639C14.2411 5.38229 14.0342 5.29502 13.8211 5.22549C13.7652 5.20696 13.709 5.18932 13.6526 5.17258Z" fill="#222D65"/>
<path d="M6.2677 5.50547C6.29361 5.33728 6.37899 5.18396 6.50833 5.07337C6.63767 4.96278 6.80238 4.90225 6.97255 4.90278H11.4438C11.9735 4.90278 12.4679 4.93745 12.9191 5.01042C13.2245 5.05842 13.5257 5.13019 13.8198 5.22511C14.0418 5.29869 14.248 5.38566 14.4383 5.48601C14.6621 4.05865 14.4365 3.08681 13.6648 2.20681C12.8139 1.23801 11.2783 0.823242 9.31336 0.823242H3.60882C3.20743 0.823242 2.86504 1.11516 2.80301 1.51229L0.426925 16.5734C0.415858 16.6433 0.420069 16.7148 0.439268 16.7829C0.458467 16.8511 0.492199 16.9143 0.538144 16.9681C0.584088 17.022 0.641155 17.0652 0.705419 17.095C0.769682 17.1247 0.839617 17.1401 0.910413 17.1402H4.43227L5.31653 11.5299L6.2677 5.50547Z" fill="#253B80"/>
</g>
<defs>
<clipPath id="clip0_404_17473">
<rect width="75.188" height="20" fill="white" transform="translate(0.40625)"/>
</clipPath>
</defs>
</svg>
