<svg width="82" height="33" viewBox="0 0 82 33" fill="none" xmlns="http://www.w3.org/2000/svg">
<path fill-rule="evenodd" clip-rule="evenodd" d="M38.5295 4.74707V12.9131H43.5655C44.7655 12.9131 45.7575 12.5101 46.5415 11.7031C47.3475 10.8991 47.7505 9.93907 47.7505 8.82907C47.7505 7.74107 47.3475 6.79207 46.5415 5.98607C45.7575 5.15907 44.7655 4.74507 43.5655 4.74507H38.5295V4.74707ZM38.5295 15.7871V25.2601H35.5215V1.87207H43.4995C45.5275 1.87207 47.2485 2.54807 48.6665 3.89707C50.1055 5.24707 50.8245 6.89107 50.8245 8.82907C50.8245 10.8111 50.1055 12.4671 48.6665 13.7941C47.2705 15.1231 45.5475 15.7851 43.4995 15.7851H38.5295V15.7871ZM53.8645 20.3601C53.8645 21.1441 54.1975 21.7981 54.8625 22.3201C55.5275 22.8431 56.3065 23.1041 57.2005 23.1041C58.4655 23.1041 59.5915 22.6351 60.5845 21.7001C61.5765 20.7631 62.0715 19.6641 62.0715 18.4021C61.1335 17.6621 59.8255 17.2921 58.1475 17.2921C56.9255 17.2921 55.9075 17.5861 55.0905 18.1751C54.2735 18.7621 53.8645 19.4891 53.8645 20.3601ZM57.7565 8.73207C59.9805 8.73207 61.7355 9.32507 63.0225 10.5121C64.3085 11.7001 64.9505 13.3271 64.9505 15.3951V25.2601H62.0735V23.0391H61.9425C60.6995 24.8681 59.0425 25.7831 56.9725 25.7831C55.2065 25.7831 53.7285 25.2601 52.5415 24.2151C51.3535 23.1691 50.7595 21.8631 50.7595 20.2951C50.7595 18.6391 51.3855 17.3231 52.6385 16.3431C53.8925 15.3631 55.5655 14.8731 57.6585 14.8731C59.4445 14.8731 60.9165 15.1991 62.0715 15.8531V15.1661C62.0715 14.1201 61.6565 13.2341 60.8295 12.5041C60.0317 11.7862 58.9926 11.3955 57.9195 11.4101C56.2395 11.4101 54.9115 12.1181 53.9305 13.5341L51.2805 11.8671C52.7415 9.77707 54.8995 8.73207 57.7565 8.73207ZM81.4635 9.25407L71.4245 32.3151H68.3185L72.0465 24.2461L65.4405 9.25407H68.7105L73.4845 20.7521H73.5505L78.1935 9.25407H81.4635Z" fill="#5F6368"/>
<path fill-rule="evenodd" clip-rule="evenodd" d="M26.3731 13.7447C26.3731 12.7987 26.2931 11.8857 26.1411 11.0127H13.4541V16.1887H20.7201C20.5713 17.0156 20.2565 17.8038 19.7947 18.5057C19.3328 19.2077 18.7336 19.8087 18.0331 20.2727V23.6337H22.3701C24.9101 21.2937 26.3731 17.8337 26.3731 13.7447Z" fill="#4285F4"/>
<path fill-rule="evenodd" clip-rule="evenodd" d="M13.4536 26.8777C17.0836 26.8777 20.1406 25.6877 22.3696 23.6337L18.0326 20.2727C16.8256 21.0837 15.2716 21.5587 13.4536 21.5587C9.94361 21.5587 6.96562 19.1947 5.90062 16.0107H1.43262V19.4737C3.64662 23.8637 8.19661 26.8777 13.4536 26.8777Z" fill="#34A853"/>
<path fill-rule="evenodd" clip-rule="evenodd" d="M5.90101 16.0113C5.33938 14.3426 5.33938 12.536 5.90101 10.8673V7.4043H1.43301C0.488453 9.27602 -0.00244009 11.3437 9.12001e-06 13.4403C9.12001e-06 15.6103 0.518008 17.6603 1.43301 19.4753L5.90101 16.0113Z" fill="#FABB05"/>
<path fill-rule="evenodd" clip-rule="evenodd" d="M13.4536 5.32C15.4356 5.32 17.2126 6 18.6146 7.336L22.4546 3.502C20.1226 1.332 17.0816 0 13.4536 0C8.19661 0 3.64662 3.014 1.43262 7.405L5.90062 10.867C6.96562 7.683 9.94361 5.32 13.4536 5.32Z" fill="#E94235"/>
</svg>
